<svg version="1.1" id="Layer_1" xmlns="http://www.w3.org/2000/svg" xmlns:xlink="http://www.w3.org/1999/xlink" x="0px" y="0px"
	 width="100%" viewBox="0 0 345 345" enable-background="new 0 0 345 345" xml:space="preserve">
<path fill="#000000" opacity="1.000000" stroke="none" 
	d="
M209.000000,346.000000 
	C139.333344,346.000000 70.166695,346.000000 1.000028,346.000000 
	C1.000019,231.000031 1.000019,116.000069 1.000009,1.000074 
	C115.999947,1.000049 230.999893,1.000049 345.999878,1.000025 
	C345.999939,115.999931 345.999939,230.999863 345.999969,345.999878 
	C300.500000,346.000000 255.000000,346.000000 209.000000,346.000000 
M94.324455,321.725525 
	C98.162270,323.642456 101.957504,325.650818 105.844963,327.461151 
	C127.386467,337.492523 150.332581,341.337219 173.815430,341.742981 
	C183.492935,341.910187 193.285965,340.471954 202.889236,338.916718 
	C233.721649,333.923401 260.935516,320.768555 284.241638,300.172943 
	C304.613953,282.169922 320.848755,260.808533 329.920258,234.884949 
	C333.877289,223.576935 336.049255,211.644272 339.651337,199.478134 
	C340.429871,190.602615 342.088562,181.695007 341.766541,172.859589 
	C341.354004,161.541061 340.017334,150.152939 337.896301,139.020096 
	C332.404358,110.194153 319.485229,84.724564 300.125793,62.819244 
	C283.414886,43.910744 263.551300,29.025156 240.130051,18.982073 
	C218.705872,9.795344 196.281723,5.640108 173.218369,5.240981 
	C162.899139,5.062400 152.401352,6.325968 142.228607,8.235235 
	C112.619865,13.792344 86.074547,26.393579 63.441032,46.262222 
	C40.549301,66.357536 23.851547,90.836296 13.999524,119.944855 
	C8.105402,137.359497 5.770269,155.288956 5.236138,173.412064 
	C4.952119,183.048874 6.754254,192.786362 8.039999,202.421661 
	C10.333468,219.608795 16.230249,235.764709 24.127331,251.029358 
	C34.804882,271.668518 49.240883,289.571655 67.616714,303.885437 
	C75.876427,310.319275 85.173332,315.421631 94.324455,321.725525 
z"/>
<path fill="#25035B" opacity="1.000000" stroke="none" 
	d="
M339.031860,199.995270 
	C336.049255,211.644272 333.877289,223.576935 329.920258,234.884949 
	C320.848755,260.808533 304.613953,282.169922 284.241638,300.172943 
	C260.935516,320.768555 233.721649,333.923401 202.889236,338.916718 
	C193.285965,340.471954 183.492935,341.910187 173.815430,341.742981 
	C150.332581,341.337219 127.386467,337.492523 105.844963,327.461151 
	C101.957504,325.650818 98.162270,323.642456 94.037888,321.089813 
	C91.449684,315.846436 89.136185,311.244690 86.848564,306.630066 
	C78.585976,289.962799 70.332092,273.291260 62.537445,256.578796 
	C85.752106,256.536316 108.504242,256.536316 131.239777,256.536316 
	C131.239777,248.391891 131.239777,240.991043 131.239777,233.275742 
	C128.888916,233.275742 126.910118,233.283401 124.931381,233.274536 
	C105.952904,233.189575 86.974442,233.101822 68.011101,232.718536 
	C68.031952,232.027084 68.037674,231.631958 68.503021,231.154999 
	C91.683365,231.073151 114.404068,231.073151 136.879425,231.073151 
	C136.879425,222.334686 136.879425,214.281784 136.879425,205.975937 
	C133.661011,205.975937 130.847473,205.975937 127.903275,205.690674 
	C126.899353,204.936005 126.026100,204.466614 125.222763,203.599335 
	C125.454636,202.217987 125.647469,201.238510 125.774117,200.250565 
	C131.946198,152.105148 183.428070,125.805908 225.893005,149.389954 
	C225.646515,150.606567 225.497528,151.492355 225.158905,152.647919 
	C223.696472,153.709061 222.423660,154.500427 221.023697,155.370865 
	C228.961380,163.940765 235.925339,171.459381 242.915649,179.006454 
	C251.468445,171.048233 259.621185,163.462265 268.016357,156.055939 
	C268.527313,156.533661 268.795776,156.831726 268.925110,157.430801 
	C261.887878,164.302063 254.989792,170.872314 247.978577,177.550308 
	C252.386429,182.194290 256.434448,186.459167 260.613342,190.861938 
	C262.548523,189.041519 264.114380,187.571777 265.676727,186.098343 
	C280.408936,172.204575 295.140564,158.310196 309.992065,144.781036 
	C311.086914,147.064514 312.035278,148.997086 313.041321,150.899155 
	C321.698944,167.267654 330.366943,183.630646 339.031860,199.995270 
z"/>
<path fill="#432D81" opacity="1.000000" stroke="none" 
	d="
M339.341614,199.736694 
	C330.366943,183.630646 321.698944,167.267654 313.041321,150.899155 
	C312.035278,148.997086 311.086914,147.064514 310.135620,144.501663 
	C309.957153,142.772476 310.088806,141.430405 309.489014,140.651840 
	C307.785645,138.440750 305.783539,136.459778 303.737732,134.130463 
	C303.283295,133.592102 302.990204,133.311478 302.784729,133.059372 
	C302.872345,133.087875 302.805603,133.259644 302.850494,132.886032 
	C301.609406,130.412384 300.323425,128.312332 299.166779,125.906555 
	C300.163605,124.636093 301.031097,123.671387 301.977600,122.618858 
	C294.863556,114.961861 287.908630,107.476105 280.900726,99.933357 
	C279.108856,101.495354 277.627045,102.787056 275.767822,104.083313 
	C273.926422,104.410370 272.462433,104.732872 270.672546,104.951340 
	C241.348404,83.795685 209.160690,75.818184 173.635254,80.847702 
	C113.199089,89.403969 65.672234,142.729462 63.741203,203.976837 
	C61.895035,204.663879 60.439827,205.325256 58.544861,206.031708 
	C57.322968,206.837128 55.879559,207.582108 55.861473,208.360229 
	C55.689259,215.768661 55.758709,223.182724 55.758709,231.236847 
	C60.172585,231.236847 64.107994,231.236847 68.043396,231.236847 
	C68.037674,231.631958 68.031952,232.027084 67.596825,232.822144 
	C65.408493,233.222107 63.649574,233.222107 62.074928,233.222107 
	C62.074928,241.498154 62.074928,249.059738 62.074928,256.621307 
	C70.332092,273.291260 78.585976,289.962799 86.848564,306.630066 
	C89.136185,311.244690 91.449684,315.846436 93.875458,320.791138 
	C85.173332,315.421631 75.876427,310.319275 67.616714,303.885437 
	C49.240883,289.571655 34.804882,271.668518 24.127331,251.029358 
	C16.230249,235.764709 10.333468,219.608795 8.039999,202.421661 
	C6.754254,192.786362 4.952119,183.048874 5.236138,173.412064 
	C5.770269,155.288956 8.105402,137.359497 13.999524,119.944855 
	C23.851547,90.836296 40.549301,66.357536 63.441032,46.262222 
	C86.074547,26.393579 112.619865,13.792344 142.228607,8.235235 
	C152.401352,6.325968 162.899139,5.062400 173.218369,5.240981 
	C196.281723,5.640108 218.705872,9.795344 240.130051,18.982073 
	C263.551300,29.025156 283.414886,43.910744 300.125793,62.819244 
	C319.485229,84.724564 332.404358,110.194153 337.896301,139.020096 
	C340.017334,150.152939 341.354004,161.541061 341.766541,172.859589 
	C342.088562,181.695007 340.429871,190.602615 339.341614,199.736694 
z"/>
<path fill="#FEFEFE" opacity="1.000000" stroke="none" 
	d="
M64.132172,203.951172 
	C65.672234,142.729462 113.199089,89.403969 173.635254,80.847702 
	C209.160690,75.818184 241.348404,83.795685 270.698425,105.301224 
	C256.030273,120.189812 241.010391,134.624481 225.990509,149.059143 
	C183.428070,125.805908 131.946198,152.105148 125.774117,200.250565 
	C125.647469,201.238510 125.454636,202.217987 124.746597,203.658386 
	C104.177727,204.060623 84.154953,204.005890 64.132172,203.951172 
z"/>
<path fill="#FDFDFE" opacity="1.000000" stroke="none" 
	d="
M276.145233,104.078766 
	C277.627045,102.787056 279.108856,101.495354 280.900726,99.933357 
	C287.908630,107.476105 294.863556,114.961861 301.977600,122.618858 
	C301.031097,123.671387 300.163605,124.636093 298.863342,126.026794 
	C288.211639,136.260620 277.992767,146.068451 267.773895,155.876282 
	C259.621185,163.462265 251.468445,171.048233 242.915649,179.006454 
	C235.925339,171.459381 228.961380,163.940765 221.023697,155.370865 
	C222.423660,154.500427 223.696472,153.709061 225.482391,152.559326 
	C231.656906,146.863129 237.363617,141.572372 242.970139,136.177475 
	C254.057800,125.508354 265.090057,114.781670 276.145233,104.078766 
z"/>
<path fill="#FEFEFE" opacity="1.000000" stroke="none" 
	d="
M68.503029,231.154999 
	C64.107994,231.236847 60.172585,231.236847 55.758709,231.236847 
	C55.758709,223.182724 55.689259,215.768661 55.861473,208.360229 
	C55.879559,207.582108 57.322968,206.837128 58.900265,206.144394 
	C82.474937,206.133316 105.254440,206.054626 128.033951,205.975937 
	C130.847473,205.975937 133.661011,205.975937 136.879425,205.975937 
	C136.879425,214.281784 136.879425,222.334686 136.879425,231.073151 
	C114.404068,231.073151 91.683365,231.073151 68.503029,231.154999 
z"/>
<path fill="#FAFAFC" opacity="1.000000" stroke="none" 
	d="
M62.537445,256.578796 
	C62.074928,249.059738 62.074928,241.498154 62.074928,233.222107 
	C63.649574,233.222107 65.408493,233.222107 67.581696,233.118484 
	C86.974442,233.101822 105.952904,233.189575 124.931381,233.274536 
	C126.910118,233.283401 128.888916,233.275742 131.239777,233.275742 
	C131.239777,240.991043 131.239777,248.391891 131.239777,256.536316 
	C108.504242,256.536316 85.752106,256.536316 62.537445,256.578796 
z"/>
<path fill="#FBFBFC" opacity="1.000000" stroke="none" 
	d="
M303.899048,134.388199 
	C305.783539,136.459778 307.785645,138.440750 309.489014,140.651840 
	C310.088806,141.430405 309.957153,142.772476 310.015930,144.136627 
	C295.140564,158.310196 280.408936,172.204575 265.676727,186.098343 
	C264.114380,187.571777 262.548523,189.041519 260.613342,190.861938 
	C256.434448,186.459167 252.386429,182.194290 247.978577,177.550308 
	C254.989792,170.872314 261.887878,164.302063 269.242249,157.313232 
	C279.278717,147.806137 288.858917,138.717590 298.563049,129.511520 
	C300.121887,130.888687 301.463745,132.074173 302.805603,133.259644 
	C302.805603,133.259644 302.872345,133.087875 302.892761,133.361115 
	C303.241791,133.885635 303.570435,134.136917 303.899048,134.388199 
z"/>
<path fill="#57279A" opacity="1.000000" stroke="none" 
	d="
M275.767822,104.083328 
	C265.090057,114.781670 254.057800,125.508354 242.970139,136.177475 
	C237.363617,141.572372 231.656906,146.863129 225.672012,152.289566 
	C225.497528,151.492355 225.646515,150.606567 225.893005,149.389954 
	C241.010391,134.624481 256.030273,120.189812 271.024292,105.405258 
	C272.462433,104.732872 273.926422,104.410370 275.767822,104.083328 
z"/>
<path fill="#58299B" opacity="1.000000" stroke="none" 
	d="
M127.903275,205.690674 
	C105.254440,206.054626 82.474937,206.133316 59.340027,206.099319 
	C60.439827,205.325256 61.895035,204.663879 63.741203,203.976837 
	C84.154953,204.005890 104.177727,204.060623 124.676682,204.056290 
	C126.026100,204.466614 126.899353,204.936005 127.903275,205.690674 
z"/>
<path fill="#391A6A" opacity="1.000000" stroke="none" 
	d="
M302.850494,132.886032 
	C301.463745,132.074173 300.121887,130.888687 298.563049,129.511520 
	C288.858917,138.717590 279.278717,147.806137 269.381378,157.012238 
	C268.795776,156.831726 268.527313,156.533661 268.016357,156.055939 
	C277.992767,146.068451 288.211639,136.260620 298.734009,126.332535 
	C300.323425,128.312332 301.609406,130.412384 302.850494,132.886032 
z"/>
<path fill="#391A6A" opacity="1.000000" stroke="none" 
	d="
M303.737732,134.130463 
	C303.570435,134.136917 303.241791,133.885635 302.805115,133.332611 
	C302.990204,133.311478 303.283295,133.592102 303.737732,134.130463 
z"/>
</svg>